<svg width="24" height="24" viewBox="0 0 24 24" fill="none" xmlns="http://www.w3.org/2000/svg">
<g clip-path="url(#clip0_411_250)">
<path d="M12.9869 2.22634C10.0198 -0.74081 5.19153 -0.74081 2.22438 2.22634C-0.742763 5.19348 -0.742763 10.0217 2.22438 12.9888C4.98337 15.7478 9.34941 15.9401 12.3342 13.5692L14.2394 15.4744L13.6414 16.0724L21.5708 24.0019L23.9999 21.5728L16.0705 13.6433L15.4725 14.2413L13.5673 12.3361C15.9382 9.35136 15.7459 4.98532 12.9869 2.22634ZM3.72207 11.4912C1.5805 9.3496 1.5805 5.86382 3.72207 3.72226C5.86363 1.58069 9.34941 1.58069 11.491 3.72226C13.6325 5.86382 13.6325 9.3496 11.491 11.4912C9.34941 13.6327 5.86363 13.6327 3.72207 11.4912Z" fill="white"/>
</g>
<defs>
<clipPath id="clip0_411_250">
<rect width="24" height="24" fill="white"/>
</clipPath>
</defs>
</svg>
